<?xml version="1.0" encoding="UTF-8"?>
<svg version="1.1" xmlns="http://www.w3.org/2000/svg" width="400" height="600">
<path d="M0 0 C1.18613892 0.00785522 1.18613892 0.00785522 2.39624023 0.01586914 C3.67724609 0.02070312 3.67724609 0.02070312 4.98413086 0.02563477 C5.88196289 0.03401367 6.77979492 0.04239258 7.70483398 0.05102539 C8.6065332 0.05553711 9.50823242 0.06004883 10.43725586 0.06469727 C12.67234712 0.07652315 14.90730835 0.09300319 17.14233398 0.11352539 C17.14233398 1.10352539 17.14233398 2.09352539 17.14233398 3.11352539 C15.10537812 4.60688583 13.1198218 5.89381248 10.95483398 7.17602539 C-5.55614086 17.38422084 -20.37277491 30.19441597 -33.85766602 44.11352539 C-34.66977539 44.92047852 -35.48188477 45.72743164 -36.31860352 46.55883789 C-38.91472492 49.17093543 -41.43009478 51.83773293 -43.92016602 54.55102539 C-44.75676758 55.45723633 -45.59336914 56.36344727 -46.45532227 57.29711914 C-48.89413979 60.04269235 -48.89413979 60.04269235 -50.79125977 63.02368164 C-52.37666139 65.39429163 -53.92285366 67.41350529 -55.78735352 69.54321289 C-58.76643506 72.95561539 -61.42012158 76.50556716 -63.98266602 80.23852539 C-64.44423096 80.91012695 -64.9057959 81.58172852 -65.38134766 82.27368164 C-74.05158773 95.130106 -82.31099902 109.00336583 -88.10766602 123.42602539 C-88.44282227 124.2471582 -88.77797852 125.06829102 -89.12329102 125.91430664 C-90.01603259 128.2013507 -90.01603259 128.2013507 -89.85766602 131.11352539 C-90.51766602 131.11352539 -91.17766602 131.11352539 -91.85766602 131.11352539 C-92.00461914 131.67555664 -92.15157227 132.23758789 -92.30297852 132.81665039 C-93.53599868 137.43693286 -94.81973476 142.03144255 -96.25219727 146.59399414 C-106.75317103 180.17755153 -107.98188915 213.43046276 -108.06298828 248.39624023 C-108.07259266 251.0595523 -108.08256392 253.72286068 -108.09298706 256.38616943 C-108.11452107 262.07160122 -108.13274705 267.75703542 -108.148592 273.44248581 C-108.17150486 281.66224296 -108.1996153 289.8819762 -108.22891127 298.10171278 C-108.27632834 311.44434408 -108.31966084 324.78698529 -108.36035156 338.12963867 C-108.39983946 351.07495898 -108.4412965 364.02027057 -108.48535156 376.96557617 C-108.48943797 378.16663951 -108.48943797 378.16663951 -108.49360693 379.39196675 C-108.50728859 383.40971214 -108.52100843 387.42745739 -108.53474724 391.44520259 C-108.64830432 424.66795874 -108.75520179 457.89073315 -108.85766602 491.11352539 C-123.21899298 491.25529271 -137.58035969 491.39226784 -151.94178134 491.52410638 C-158.61575613 491.58547603 -165.2897098 491.64830102 -171.96363831 491.71456909 C-277.43194458 492.75806517 -277.43194458 492.75806517 -298.85766602 491.11352539 C-301.71864148 488.25254992 -300.93127071 480.65964138 -300.96788979 476.79094124 C-300.96605415 474.72887181 -300.95861942 472.66680256 -300.94668579 470.60476685 C-300.94416223 469.46315342 -300.94163867 468.32153999 -300.93903863 467.14533222 C-300.92933507 463.32887147 -300.91229751 459.51247947 -300.89526367 455.69604492 C-300.88618745 452.95563523 -300.87864496 450.21522179 -300.87101746 447.47480774 C-300.85150029 440.80693761 -300.82644657 434.13909932 -300.79941441 427.47125585 C-300.77752365 422.04492852 -300.75768512 416.61859724 -300.73929977 411.19225693 C-300.73667765 410.41866135 -300.73405552 409.64506577 -300.73135393 408.84802791 C-300.72603594 407.27614636 -300.72072316 405.70426479 -300.71541552 404.13238321 C-300.66542715 389.39626549 -300.60921047 374.66017659 -300.55080979 359.92409013 C-300.50096425 347.31211883 -300.45621353 334.70013805 -300.4152832 322.08813477 C-300.36767245 307.41874731 -300.3170082 292.74937572 -300.2614578 278.08001602 C-300.25552323 276.51099453 -300.24959188 274.94197302 -300.24366379 273.37295151 C-300.2407454 272.60112924 -300.23782702 271.82930698 -300.23482019 271.03409616 C-300.21457505 265.62680193 -300.19644982 260.21950304 -300.17915726 254.81219864 C-300.15795763 248.20369302 -300.13333068 241.5952102 -300.1045108 234.98673327 C-300.08991941 231.62250372 -300.07724979 228.25829843 -300.06770515 224.89404869 C-300.00024891 201.71198274 -300.00024891 201.71198274 -299.46884155 190.75656128 C-299.4388295 190.0540959 -299.40881746 189.35163052 -299.37789595 188.62787831 C-299.13803703 184.49111926 -298.31490099 180.98444526 -296.85766602 177.11352539 C-296.4607221 175.72686796 -296.07651601 174.33645618 -295.70922852 172.94165039 C-291.90556929 158.71927241 -286.54843098 146.20274035 -279.85766602 133.11352539 C-279.19766602 133.11352539 -278.53766602 133.11352539 -277.85766602 133.11352539 C-277.61016602 132.43290039 -277.36266602 131.75227539 -277.10766602 131.05102539 C-274.46072409 124.83071187 -271.62885488 120.84249134 -266.85766602 116.11352539 C-265.3128347 114.30036755 -263.79175981 112.46669893 -262.29516602 110.61352539 C-261.17948242 109.23680664 -261.17948242 109.23680664 -260.04125977 107.83227539 C-258.60232093 106.0406807 -257.17615057 104.23874437 -255.76391602 102.42602539 C-253.41566575 99.57732834 -250.71448912 97.44562588 -247.85766602 95.11352539 C-245.68342842 92.99503747 -243.54578559 90.85638175 -241.48266602 88.62915039 C-235.54817805 82.39793803 -228.69945278 77.29113842 -221.85766602 72.11352539 C-220.83769531 71.33501221 -220.83769531 71.33501221 -219.79711914 70.54077148 C-195.75480831 52.28663031 -155.24709727 24.11352539 -123.85766602 24.11352539 C-123.52766602 23.45352539 -123.19766602 22.79352539 -122.85766602 22.11352539 C-120.2717765 21.35783165 -117.73129123 20.70476487 -115.10766602 20.11352539 C-110.50981707 19.05502779 -106.23996502 17.8855624 -101.85766602 16.11352539 C-100.03398093 15.7126291 -98.19934961 15.35883487 -96.35766602 15.05102539 C-94.5241778 14.7394354 -92.69084047 14.42695608 -90.85766602 14.11352539 C-89.96047852 13.97043945 -89.06329102 13.82735352 -88.13891602 13.67993164 C-85.67716349 13.27694125 -85.67716349 13.27694125 -83.85766602 11.11352539 C-83.85766602 11.77352539 -83.85766602 12.43352539 -83.85766602 13.11352539 C-82.77227539 12.82477539 -81.68688477 12.53602539 -80.56860352 12.23852539 C-79.12338972 11.86314518 -77.67807161 11.48816642 -76.23266602 11.11352539 C-75.51981445 10.92274414 -74.80696289 10.73196289 -74.07250977 10.53540039 C-69.89918058 9.46335253 -66.2058785 8.89405725 -61.85766602 9.11352539 C-61.52766602 8.45352539 -61.19766602 7.79352539 -60.85766602 7.11352539 C-58.02875037 6.66219683 -55.26710647 6.31698652 -52.42016602 6.05102539 C-46.97318709 5.72293074 -46.97318709 5.72293074 -41.85766602 4.11352539 C-40.00764587 3.922144 -38.15170643 3.78764561 -36.29516602 3.67602539 C-29.04161252 3.19801925 -21.79295271 2.67270944 -14.54516602 2.11352539 C-13.41715576 2.03046143 -12.28914551 1.94739746 -11.12695312 1.86181641 C-10.07258057 1.77988037 -9.01820801 1.69794434 -7.93188477 1.61352539 C-6.50235474 1.50524414 -6.50235474 1.50524414 -5.04394531 1.39477539 C-2.6617715 1.08832489 -2.30625265 0.14093935 0 0 Z " fill="#02347A" transform="translate(320.857666015625,101.886474609375)"/>
<path d="M0 0 C0 0.66 0 1.32 0 2 C0.5775 2.28875 1.155 2.5775 1.75 2.875 C2.4925 3.24625 3.235 3.6175 4 4 C4.680625 4.268125 5.36125 4.53625 6.0625 4.8125 C8.70073065 6.42948008 9.47440077 8.3008629 11 11 C11.64775391 11.72896484 11.64775391 11.72896484 12.30859375 12.47265625 C21.43196325 22.87566719 24.72419915 39.52608429 24 53 C22.3861322 69.85339092 15.46580464 84.2750212 2.4140625 95.21875 C-9.61751456 104.09641851 -22.18732725 107.58094338 -37 106 C-50.3091848 103.41979659 -62.70749169 96.33092649 -70.94140625 85.4296875 C-77.96833723 74.77546386 -83.23945113 63.93036091 -83 51 C-83.29185063 48.9935269 -83.61169599 46.99005807 -84 45 C-83.34 45 -82.68 45 -82 45 C-82.33 42.69 -82.66 40.38 -83 38 C-82.34 38 -81.68 38 -81 38 C-80.9071875 36.39125 -80.9071875 36.39125 -80.8125 34.75 C-79.02749755 21.09714342 -70.56049495 10.41571452 -60.33984375 1.75 C-41.92881475 -12.01985141 -19.57024594 -9.92238923 0 0 Z " fill="#FE7A1D" transform="translate(357,311)"/>
<path d="M0 0 C0.99 0.495 0.99 0.495 2 1 C-8.4843706 10.57855182 -8.4843706 10.57855182 -13.25 14.6875 C-47.74366258 44.84321718 -71.67393545 92.45781329 -76 138 C-76.49907564 146.9541666 -76.44266935 155.92663309 -76.43273985 164.89179981 C-76.43210727 168.46140523 -76.44881631 172.03093915 -76.46325684 175.60050964 C-76.48588667 181.76237228 -76.49790067 187.92417898 -76.50238609 194.08608055 C-76.50888683 202.99477793 -76.5318923 211.90337486 -76.55872939 220.81203143 C-76.60184749 235.2710764 -76.63189938 249.7301171 -76.65356445 264.18920898 C-76.6746193 278.22210789 -76.7019334 292.25497197 -76.73754883 306.2878418 C-76.73974765 307.15505276 -76.74194648 308.02226372 -76.74421193 308.9157538 C-76.75528271 313.26696082 -76.76647531 317.61816751 -76.77772844 321.96937406 C-76.87070113 357.97955296 -76.94217655 393.98974847 -77 430 C-83.6 430 -90.2 430 -97 430 C-97.04571337 394.78046815 -97.08106474 359.56094318 -97.10213066 324.34138785 C-97.1046318 320.17493886 -97.10722047 316.00848992 -97.10986328 311.84204102 C-97.1103879 311.01264339 -97.11091252 310.18324577 -97.11145304 309.32871488 C-97.12013443 295.93319883 -97.1358918 282.5377001 -97.15430559 269.14219429 C-97.17306792 255.37742257 -97.18413006 241.61265987 -97.18817699 227.84787589 C-97.19090897 219.36749086 -97.19950933 210.88715481 -97.21583293 202.40678487 C-97.22647816 196.57623605 -97.22958375 190.74571223 -97.22700275 184.91515442 C-97.22573307 181.56093194 -97.22867966 178.20686242 -97.23841095 174.85264397 C-97.28712011 157.18480392 -97.08558215 139.57458442 -93.1875 122.25 C-93.01573242 121.46890869 -92.84396484 120.68781738 -92.66699219 119.88305664 C-81.85662759 72.45959225 -51.46572522 32.15097492 -11 6 C-3.48678549 1.46076624 -3.48678549 1.46076624 0 0 Z " fill="#F9FBFC" transform="translate(213,149)"/>
<path d="M0 0 C0.99 0.495 0.99 0.495 2 1 C1.16597656 1.81082031 0.33195312 2.62164062 -0.52734375 3.45703125 C-7.50268121 10.2950671 -14.05284067 17.22932144 -20 25 C-20.64533691 25.83869629 -20.64533691 25.83869629 -21.30371094 26.69433594 C-38.75499704 49.49619379 -50.81566605 74.4759728 -59 102 C-59.22268555 102.73234863 -59.44537109 103.46469727 -59.67480469 104.21923828 C-65.96972701 125.28617654 -66.45743709 147.32184967 -66.43273985 169.13395596 C-66.43210377 172.65098493 -66.44884766 176.16794286 -66.46325684 179.68493652 C-66.48582272 185.74794581 -66.49788929 191.81089851 -66.50238609 197.87394714 C-66.5089032 206.63958865 -66.53193644 215.40512879 -66.55872939 224.17072898 C-66.60178509 238.39961224 -66.6318722 252.62849117 -66.65356445 266.85742188 C-66.67463829 280.66213093 -66.70196861 294.46680476 -66.73754883 308.27148438 C-66.73974765 309.12543374 -66.74194648 309.9793831 -66.74421193 310.85920972 C-66.75528318 315.14412728 -66.76647569 319.42904451 -66.77772844 323.7139616 C-66.8706124 359.1426113 -66.94212892 394.57127656 -67 430 C-73.27 430 -79.54 430 -86 430 C-86.06857204 393.26876855 -86.12159811 356.53754858 -86.15319599 319.80626594 C-86.1569477 315.46085036 -86.16083071 311.11543492 -86.16479492 306.77001953 C-86.16558185 305.90499684 -86.16636878 305.03997415 -86.16717956 304.14873865 C-86.18020117 290.17836667 -86.20383695 276.20803207 -86.23145839 262.23768219 C-86.25960322 247.88191041 -86.27619536 233.52615809 -86.28226548 219.17035985 C-86.28636319 210.32604583 -86.29926217 201.4818375 -86.3237494 192.63755605 C-86.33971892 186.5565653 -86.34437526 180.47562845 -86.34050413 174.3946183 C-86.33859984 170.89645804 -86.34132807 167.39848125 -86.35761642 163.90035439 C-86.43580594 144.18457425 -85.37018074 125.4486677 -79.8125 106.4375 C-79.51206787 105.39158691 -79.21163574 104.34567383 -78.90209961 103.26806641 C-76.00867274 93.50619352 -72.38241416 84.18514749 -68 75 C-67.52675293 74.00782471 -67.52675293 74.00782471 -67.04394531 72.99560547 C-53.69456472 45.55674909 -28.75618693 12.59568518 0 0 Z " fill="#FCFDFE" transform="translate(244,149)"/>
<path d="M0 0 C0 0.66 0 1.32 0 2 C-0.56267578 2.29422852 -1.12535156 2.58845703 -1.70507812 2.89160156 C-7.04933697 5.76116792 -11.82361443 8.89351202 -16.5 12.75 C-17.51477417 13.5848291 -17.51477417 13.5848291 -18.55004883 14.43652344 C-55.10810694 45.08701434 -82.58778821 89.28886387 -87.7853545 137.35532653 C-88.18466059 142.27522562 -88.15385562 147.19633268 -88.15821838 152.129776 C-88.16315636 153.32577956 -88.16809434 154.52178312 -88.17318195 155.75402921 C-88.18582799 159.05156207 -88.19415341 162.34905333 -88.20060861 165.6466006 C-88.20865495 169.21090497 -88.22233797 172.77518836 -88.23532104 176.33947754 C-88.25702407 182.50750632 -88.27519095 188.67553728 -88.29092598 194.84358406 C-88.31368108 203.7614396 -88.34181594 212.67927186 -88.37124526 221.59710758 C-88.41885222 236.06725087 -88.46213498 250.53740371 -88.50268555 265.00756836 C-88.54207563 279.06031029 -88.58351023 293.11304375 -88.62768555 307.16577148 C-88.63040982 308.03262269 -88.63313409 308.89947389 -88.63594092 309.79259331 C-88.64962097 314.14152244 -88.66334113 318.49045144 -88.67708123 322.83938038 C-88.79093761 358.89290267 -88.89769855 394.94644318 -89 431 C-95.27 431 -101.54 431 -108 431 C-108.0685633 394.63392855 -108.12159363 358.26787032 -108.15319599 321.90174742 C-108.15694773 317.6001069 -108.16083073 313.2984665 -108.16479492 308.99682617 C-108.16558185 308.14051302 -108.16636878 307.28419986 -108.16717956 306.40193782 C-108.18020327 292.5699204 -108.20384023 278.73794072 -108.23145839 264.90594562 C-108.25959734 250.69369027 -108.27619413 236.48145456 -108.28226548 222.26917249 C-108.28636439 213.51237711 -108.29927006 204.75568841 -108.3237494 195.9989259 C-108.33971164 189.97914774 -108.34437687 183.95942404 -108.34050413 177.9396263 C-108.33859873 174.47601877 -108.34134123 171.01259653 -108.35761642 167.54902267 C-108.55818868 117.44229744 -91.88683304 73.55213239 -56.44824219 37.44775391 C-44.55669782 25.56021883 -18.34642336 0 0 0 Z " fill="#F9FBFD" transform="translate(184,148)"/>
<path d="M0 0 C1.32 0.33 2.64 0.66 4 1 C3.21238281 1.65484375 2.42476563 2.3096875 1.61328125 2.984375 C-28.60103829 28.23324047 -51.59666082 57.90339908 -63.3125 96.0625 C-63.54283936 96.8040332 -63.77317871 97.54556641 -64.01049805 98.30957031 C-68.98323781 115.41214537 -69.45227879 131.96382542 -69.43273985 149.65966856 C-69.43210858 153.23067266 -69.44880454 156.80160473 -69.46325684 160.37257385 C-69.48591066 166.53992838 -69.4979049 172.70722693 -69.50238609 178.87462044 C-69.50888073 187.79130988 -69.53187577 196.70789869 -69.55872939 205.6245473 C-69.60187087 220.095794 -69.63190952 234.56703643 -69.65356445 249.03833008 C-69.67461221 263.08490087 -69.70192023 277.13143681 -69.73754883 291.17797852 C-69.73974765 292.04571493 -69.74194648 292.91345133 -69.74421193 293.80748279 C-69.75528253 298.16123107 -69.76647516 302.51497903 -69.77772844 306.86872685 C-69.87073433 342.9124548 -69.94219432 378.95619938 -70 415 C-75.94 415 -81.88 415 -88 415 C-88.06858942 379.3049428 -88.12160701 343.6098991 -88.15319599 307.91478943 C-88.15694765 303.69083282 -88.16083066 299.46687634 -88.16479492 295.24291992 C-88.16558185 294.40208446 -88.16636878 293.561249 -88.16717956 292.69493368 C-88.18019701 279.11969477 -88.20383044 265.54449439 -88.23145839 251.96927825 C-88.2596149 238.01691614 -88.2761978 224.06457406 -88.28226548 210.1121847 C-88.28636079 201.51815433 -88.29924647 192.92423285 -88.3237494 184.33023604 C-88.33973343 178.41930488 -88.34437207 172.50842916 -88.34050413 166.59747801 C-88.33860201 163.19838796 -88.34299721 159.79963746 -88.35761642 156.40055656 C-88.55701188 107.60747838 -73.43441903 68.01212383 -39.38134766 32.44433594 C-38.15491961 31.16198382 -36.94170513 29.86702339 -35.73046875 28.5703125 C-26.76990855 19.22739073 -16.37236026 11.55583999 -5.35473633 4.81640625 C-2.13203198 2.94690183 -2.13203198 2.94690183 0 0 Z " fill="#FCFEFE" transform="translate(125,164)"/>
<path d="M0 0 C0.66 0 1.32 0 2 0 C2.24645264 0.78238037 2.49290527 1.56476074 2.74682617 2.37084961 C3.87205164 5.9004075 5.02923584 9.41865309 6.1875 12.9375 C6.57486328 14.16919922 6.96222656 15.40089844 7.36132812 16.66992188 C7.75126953 17.83974609 8.14121094 19.00957031 8.54296875 20.21484375 C9.0692688 21.84087524 9.0692688 21.84087524 9.60620117 23.49975586 C10.75702833 26.20853215 10.75702833 26.20853215 13.39013672 26.85766602 C15.67641264 26.98235253 17.92583486 27.10100219 20.21484375 27.0625 C21.36823242 27.05089844 21.36823242 27.05089844 22.54492188 27.0390625 C24.13606875 27.01308459 25.72721459 26.98704324 27.31835938 26.9609375 C31.67420892 26.91719675 35.7079822 27.11817291 40 28 C38.65427408 32.03717777 35.96886397 33.62531541 32.55859375 35.8515625 C30.84427485 36.93246934 30.84427485 36.93246934 30 39 C28.28818334 39.95466698 26.57548955 40.90785107 24.85546875 41.84765625 C22.12142143 43.54564354 20.16894347 45.63387985 18 48 C18.26554687 48.85722656 18.53109375 49.71445312 18.8046875 50.59765625 C21.40729083 59.02287215 23.89659095 67.43612031 26 76 C21.51818019 75.50202002 20.1052394 74.13741805 17 71 C14.74960951 69.14202888 12.41644473 67.41141105 10.0625 65.6875 C9.45470703 65.22021484 8.84691406 64.75292969 8.22070312 64.27148438 C4.59827126 61.62353221 4.59827126 61.62353221 0.2578125 61.0859375 C-3.70432868 62.68998773 -6.98651448 64.98651448 -10 68 C-11.79382146 69.2155316 -13.60919785 70.39947646 -15.4375 71.5625 C-16.88962891 72.49255859 -16.88962891 72.49255859 -18.37109375 73.44140625 C-21 75 -21 75 -24 76 C-23.60599095 70.00834518 -22.42936674 65.53895616 -20 60 C-19.38801256 57.42175614 -18.89152796 54.84336849 -18.4296875 52.234375 C-18 50 -18 50 -17 47 C-19.2668555 45.18232326 -21.53815973 43.37076857 -23.8125 41.5625 C-24.45509766 41.04623047 -25.09769531 40.52996094 -25.75976562 39.99804688 C-26.69272461 39.25844727 -26.69272461 39.25844727 -27.64453125 38.50390625 C-28.21534424 38.04830322 -28.78615723 37.5927002 -29.37426758 37.12329102 C-31.12116822 35.80454686 -31.12116822 35.80454686 -34 35 C-36.6875 32.5625 -36.6875 32.5625 -39 30 C-39 29.34 -39 28.68 -39 28 C-24.15 27.505 -24.15 27.505 -9 27 C-8.01 23.37 -7.02 19.74 -6 16 C-4.97441712 13.07796217 -3.93391954 10.19496355 -2.8125 7.3125 C-2.53986328 6.59900391 -2.26722656 5.88550781 -1.98632812 5.15039062 C-1.32888173 3.43180267 -0.66515259 1.71562011 0 0 Z " fill="#F9CF38" transform="translate(57,9)"/>
<path d="M0 0 C0.66 0 1.32 0 2 0 C4.97 8.58 7.94 17.16 11 26 C17.66624086 26.66662409 23.976152 27.13440934 30.625 27.0625 C31.43839844 27.05798828 32.25179687 27.05347656 33.08984375 27.04882812 C35.05992898 27.03723939 37.02997536 27.01931397 39 27 C39 28.32 39 29.64 39 31 C37.50390625 32.4140625 37.50390625 32.4140625 35.5625 33.625 C32.76008797 35.32383142 32.76008797 35.32383142 31 38 C29.33779419 39.00739746 27.66979326 40.00522955 26 41 C23.29921378 42.95556928 20.64604479 44.9711468 18 47 C18.54140625 48.78857422 18.54140625 48.78857422 19.09375 50.61328125 C19.56271467 52.17962324 20.03145289 53.74603305 20.5 55.3125 C20.73847656 56.09818359 20.97695312 56.88386719 21.22265625 57.69335938 C21.44824219 58.45068359 21.67382812 59.20800781 21.90625 59.98828125 C22.22045898 61.03302612 22.22045898 61.03302612 22.54101562 62.09887695 C23 64 23 64 23 67 C23.99 67.495 23.99 67.495 25 68 C25.59355614 70.64860427 25.74209269 73.29197322 26 76 C17.77357062 72.80083302 17.77357062 72.80083302 15.2265625 70.1640625 C12.79503053 67.80078406 10.29570039 66.06991535 7.4375 64.25 C6.48746094 63.63640625 5.53742188 63.0228125 4.55859375 62.390625 C2.04604139 60.76123208 2.04604139 60.76123208 -1 61 C-1.4125 61.4125 -1.825 61.825 -2.25 62.25 C-4.24579252 64.24579252 -6.43176266 65.40571693 -8.89453125 66.75 C-12.34833064 68.80049315 -15.53775031 71.22355458 -18.765625 73.609375 C-21 75 -21 75 -24 75 C-21.66666667 65.66666667 -19.33333333 56.33333333 -17 47 C-17.92039063 46.57654297 -17.92039063 46.57654297 -18.859375 46.14453125 C-21 45 -21 45 -23.25 42.6875 C-25.52860443 40.46068203 -27.31755692 39.09837304 -30 37.5 C-33.57762199 35.35207164 -36.26778659 33.15912176 -39 30 C-39 29.34 -39 28.68 -39 28 C-24.15 27.505 -24.15 27.505 -9 27 C-6.81583112 19.04347637 -6.81583112 19.04347637 -5 11 C-4.34 11 -3.68 11 -3 11 C-3.495 9.515 -3.495 9.515 -4 8 C-3.34 8 -2.68 8 -2 8 C-1.855625 7.05125 -1.71125 6.1025 -1.5625 5.125 C-1 2 -1 2 0 0 Z " fill="#F9CF37" transform="translate(194,9)"/>
<path d="M0 0 C0.66 0 1.32 0 2 0 C8.33485194 17.85649203 8.33485194 17.85649203 11 26 C14.79268744 26.89569002 18.23430817 27.07647552 22.125 27 C28.14411495 26.94509359 34.02161895 27.32907948 40 28 C38.46578557 32.25842852 35.27114814 34.36556517 31.75 36.9375 C30.0559122 38.1973561 28.36494487 39.46062744 26.68164062 40.73486328 C25.54692261 41.5885376 24.39925131 42.42522473 23.24023438 43.24560547 C19.85424819 45.7633814 19.85424819 45.7633814 18.5625 49.640625 C18.706875 50.50171875 18.85125 51.3628125 19 52.25 C19.12375 53.12140625 19.2475 53.9928125 19.375 54.890625 C19.58125 55.58671875 19.7875 56.2828125 20 57 C20.99 57.495 20.99 57.495 22 58 C22.59423828 59.76586914 22.59423828 59.76586914 23.0703125 62.03515625 C23.24433594 62.84404297 23.41835938 63.65292969 23.59765625 64.48632812 C23.77167969 65.33646484 23.94570313 66.18660156 24.125 67.0625 C24.30675781 67.91650391 24.48851562 68.77050781 24.67578125 69.65039062 C25.12476342 71.76533296 25.56335351 73.88247647 26 76 C23.09455138 74.62124664 20.48987112 73.04542363 17.84765625 71.21484375 C17.07099609 70.68439453 16.29433594 70.15394531 15.49414062 69.60742188 C13.87387218 68.4947074 12.2566692 67.37751588 10.64257812 66.25585938 C9.86462891 65.72669922 9.08667969 65.19753906 8.28515625 64.65234375 C7.58269775 64.16757568 6.88023926 63.68280762 6.15649414 63.18334961 C3.72018965 61.84645752 1.76264994 61.27598395 -1 61 C-3.79044252 62.48057256 -3.79044252 62.48057256 -6.4375 64.6875 C-7.39398438 65.42355469 -8.35046875 66.15960938 -9.3359375 66.91796875 C-10.21507812 67.60503906 -11.09421875 68.29210937 -12 69 C-17.54520548 73 -17.54520548 73 -20 73 C-20 73.66 -20 74.32 -20 75 C-21.98 75.495 -21.98 75.495 -24 76 C-23.39894647 73.54086727 -22.79478361 71.08259658 -22.1875 68.625 C-22.00807861 67.89635742 -21.82865723 67.16771484 -21.64379883 66.41699219 C-20.4290133 61.54490963 -19.0539359 56.76574281 -17.41796875 52.015625 C-16.9159326 49.59459086 -17.1888158 48.32678848 -18 46 C-20.19167199 44.05216966 -22.34117522 42.30131562 -24.6875 40.5625 C-25.92122051 39.62715564 -27.15429883 38.69096361 -28.38671875 37.75390625 C-28.98790527 37.30031738 -29.5890918 36.84672852 -30.20849609 36.37939453 C-32.87178148 34.32875915 -35.4345425 32.17137801 -38 30 C-37.505 28.515 -37.505 28.515 -37 27 C-27.76 27 -18.52 27 -9 27 C-8.01 23.04 -7.02 19.08 -6 15 C-5.34 14.67 -4.68 14.34 -4 14 C-3.38339182 12.04929298 -3.38339182 12.04929298 -3 9.75 C-2.30877964 6.31035584 -1.45097326 3.21286937 0 0 Z " fill="#F9CE37" transform="translate(331,9)"/>
<path d="M0 0 C1 2 1 2 0.44262695 3.71728516 C-0.02977417 4.74281494 -0.02977417 4.74281494 -0.51171875 5.7890625 C-0.8557373 6.55774658 -1.19975586 7.32643066 -1.55419922 8.1184082 C-1.92818848 8.9455835 -2.30217773 9.77275879 -2.6875 10.625 C-10.13749966 27.72121397 -13.31098115 45.25435584 -13.2784729 63.92086792 C-13.2871615 65.75190809 -13.2871615 65.75190809 -13.29602563 67.61993897 C-13.30995515 70.9632359 -13.31524549 74.30633254 -13.31667423 77.64964366 C-13.32040248 81.27181372 -13.3355745 84.89393924 -13.34928894 88.51608276 C-13.3714591 94.7767883 -13.38653365 101.03747778 -13.39665604 107.29821396 C-13.41130139 116.34995029 -13.43685425 125.4016306 -13.46498732 134.45333387 C-13.51034946 149.14253971 -13.54700776 163.83175367 -13.578125 178.52099609 C-13.60835403 192.78207829 -13.64274657 207.04314059 -13.68261719 221.30419922 C-13.6850987 222.19362815 -13.6875802 223.08305708 -13.69013691 223.99943841 C-13.70957901 230.9563518 -13.72926097 237.91326452 -13.74901867 244.87017703 C-13.84564052 278.91342711 -13.92135893 312.95669446 -14 347 C48.04 347 110.08 347 174 347 C174 256.58 174 166.16 174 73 C174.33 73 174.66 73 175 73 C175 164.08 175 255.16 175 349 C4.18489214 350.47254403 4.18489214 350.47254403 -15 349 C-17.86097547 346.13902453 -17.0736047 338.54611599 -17.11022377 334.67741585 C-17.10838813 332.61534642 -17.10095341 330.55327717 -17.08901978 328.49124146 C-17.08649621 327.34962803 -17.08397265 326.2080146 -17.08137262 325.03180683 C-17.07166905 321.21534607 -17.0546315 317.39895408 -17.03759766 313.58251953 C-17.02852143 310.84210984 -17.02097895 308.1016964 -17.01335144 305.36128235 C-16.99383428 298.69341221 -16.96878055 292.02557393 -16.9417484 285.35773046 C-16.91985763 279.93140313 -16.9000191 274.50507185 -16.88163376 269.07873154 C-16.87901163 268.30513596 -16.8763895 267.53154038 -16.87368792 266.73450252 C-16.86836992 265.16262097 -16.86305714 263.5907394 -16.85774951 262.01885782 C-16.80776114 247.2827401 -16.75154445 232.5466512 -16.69314377 217.81056474 C-16.64329824 205.19859344 -16.59854751 192.58661266 -16.55761719 179.97460938 C-16.51000643 165.30522192 -16.45934218 150.63585033 -16.40379179 135.96649063 C-16.39785721 134.39746914 -16.39192586 132.82844763 -16.38599777 131.25942612 C-16.38307939 130.48760385 -16.380161 129.71578159 -16.37715418 128.92057077 C-16.35690904 123.51327654 -16.33878381 118.10597765 -16.32149124 112.69867325 C-16.30029162 106.09016763 -16.27566467 99.48168481 -16.24684478 92.87320788 C-16.23225339 89.50897833 -16.21958377 86.14477304 -16.21003914 82.7805233 C-16.1425829 59.59845735 -16.1425829 59.59845735 -15.61117554 48.64303589 C-15.58116349 47.94057051 -15.55115144 47.23810513 -15.52022994 46.51435292 C-15.28037101 42.37759387 -14.45723497 38.87091987 -13 35 C-12.60305608 33.61334257 -12.21884999 32.22293079 -11.8515625 30.828125 C-8.93486243 19.92925103 -5.90677075 9.70398051 0 0 Z " fill="#164382" transform="translate(37,244)"/>
<path d="M0 0 C0.33 0 0.66 0 1 0 C1 91.08 1 182.16 1 276 C-135.56109325 277.1772508 -135.56109325 277.1772508 -189 276 C-189 275.34 -189 274.68 -189 274 C-126.63 274 -64.26 274 0 274 C0 183.58 0 93.16 0 0 Z " fill="#194A8B" transform="translate(211,317)"/>
<path d="M0 0 C0 0.99 0 1.98 0 3 C-2.14655501 2.69249629 -4.29223285 2.3788634 -6.4375 2.0625 C-8.22994141 1.80146484 -8.22994141 1.80146484 -10.05859375 1.53515625 C-13 1 -13 1 -14 0 C-15.66429051 -0.09823937 -17.33281931 -0.12973631 -19 -0.125 C-19.9075 -0.12757813 -20.815 -0.13015625 -21.75 -0.1328125 C-23.96966611 -0.25173779 -23.96966611 -0.25173779 -25 1 C-26.51928038 1.07179964 -28.04167482 1.08392007 -29.5625 1.0625 C-30.38878906 1.05347656 -31.21507812 1.04445313 -32.06640625 1.03515625 C-32.70449219 1.02355469 -33.34257812 1.01195312 -34 1 C-34 1.66 -34 2.32 -34 3 C-36.97 3.66 -39.94 4.32 -43 5 C-43 5.66 -43 6.32 -43 7 C-44.051875 7.391875 -45.10375 7.78375 -46.1875 8.1875 C-51.93874775 10.66227934 -54.89248697 14.73073877 -58 20 C-58.70125 20.639375 -59.4025 21.27875 -60.125 21.9375 C-62.49711504 24.54682655 -62.68601947 26.54621412 -63 30 C-63.66 30 -64.32 30 -65 30 C-65 31.65 -65 33.3 -65 35 C-65.66 35 -66.32 35 -67 35 C-66.979375 36.299375 -66.95875 37.59875 -66.9375 38.9375 C-66.91600546 40.29165633 -66.92851801 41.64756083 -67 43 C-67.495 43.495 -67.495 43.495 -68 44 C-68.09880797 45.47652664 -68.13079245 46.95767236 -68.1328125 48.4375 C-68.13410156 49.33210938 -68.13539063 50.22671875 -68.13671875 51.1484375 C-68.13285156 52.08945312 -68.12898438 53.03046875 -68.125 54 C-68.12886719 54.94101562 -68.13273437 55.88203125 -68.13671875 56.8515625 C-68.13542969 57.74617188 -68.13414062 58.64078125 -68.1328125 59.5625 C-68.13168457 60.38878906 -68.13055664 61.21507812 -68.12939453 62.06640625 C-68.21264807 64.00679039 -68.21264807 64.00679039 -67 65 C-66.76636119 66.84891946 -66.58696365 68.70488031 -66.4375 70.5625 C-66.35371094 71.57441406 -66.26992188 72.58632813 -66.18359375 73.62890625 C-66.12300781 74.41136719 -66.06242187 75.19382812 -66 76 C-66.66 76 -67.32 76 -68 76 C-70.34574876 69.13030721 -72.13286213 63.30741703 -72 56 C-72.29185063 53.9935269 -72.61169599 51.99005807 -73 50 C-72.34 50 -71.68 50 -71 50 C-71.33 47.69 -71.66 45.38 -72 43 C-71.34 43 -70.68 43 -70 43 C-69.9071875 41.39125 -69.9071875 41.39125 -69.8125 39.75 C-68.02749755 26.09714342 -59.56049495 15.41571452 -49.33984375 6.75 C-34.3960336 -4.4266727 -17.35761535 -4.70335384 0 0 Z " fill="#F3893A" transform="translate(346,306)"/>
<path d="M0 0 C0.66 0 1.32 0 2 0 C2.67155349 2.26949102 3.3373963 4.5403961 4 6.8125 C4.37125 8.07707031 4.7425 9.34164062 5.125 10.64453125 C6 14 6 14 6 17 C6.66 17.33 7.32 17.66 8 18 C8.59355614 20.64860427 8.74209269 23.29197322 9 26 C0.77357062 22.80083302 0.77357062 22.80083302 -1.7734375 20.1640625 C-4.20496947 17.80078406 -6.70429961 16.06991535 -9.5625 14.25 C-10.51253906 13.63640625 -11.46257812 13.0228125 -12.44140625 12.390625 C-14.95395861 10.76123208 -14.95395861 10.76123208 -18 11 C-18.4125 11.4125 -18.825 11.825 -19.25 12.25 C-21.24579252 14.24579252 -23.43176266 15.40571693 -25.89453125 16.75 C-29.34833064 18.80049315 -32.53775031 21.22355458 -35.765625 23.609375 C-38 25 -38 25 -41 25 C-39.56605749 19.08117347 -38.09951364 13.17194606 -36.4375 7.3125 C-36.20933594 6.50425781 -35.98117188 5.69601563 -35.74609375 4.86328125 C-35 3 -35 3 -33 2 C-33.33 5.63 -33.66 9.26 -34 13 C-34.66 13 -35.32 13 -36 13 C-36 14.65 -36 16.3 -36 18 C-32.535 17.505 -32.535 17.505 -29 17 C-28.67 16.01 -28.34 15.02 -28 14 C-25.04575935 12.33021181 -22.2185509 11.0728503 -19 10 C-19 9.34 -19 8.68 -19 8 C-14.23267992 8.51634179 -11.13068774 9.82674688 -7.125 12.4375 C-6.15820312 13.05496094 -5.19140625 13.67242187 -4.1953125 14.30859375 C-3.47085938 14.86675781 -2.74640625 15.42492187 -2 16 C-2 16.66 -2 17.32 -2 18 C-0.68 18 0.64 18 2 18 C2 18.66 2 19.32 2 20 C2.66 20 3.32 20 4 20 C3.71125 19.05898437 3.4225 18.11796875 3.125 17.1484375 C2.75375 15.90320313 2.3825 14.65796875 2 13.375 C1.62875 12.14523438 1.2575 10.91546875 0.875 9.6484375 C0.06272281 6.26153174 -0.17041013 3.46145571 0 0 Z " fill="#F1D85C" transform="translate(211,59)"/>
<path d="M0 0 C1.18613892 0.00785522 1.18613892 0.00785522 2.39624023 0.01586914 C3.67724609 0.02070312 3.67724609 0.02070312 4.98413086 0.02563477 C5.88196289 0.03401367 6.77979492 0.04239258 7.70483398 0.05102539 C8.6065332 0.05553711 9.50823242 0.06004883 10.43725586 0.06469727 C12.67234712 0.07652315 14.90730835 0.09300319 17.14233398 0.11352539 C17.14233398 1.10352539 17.14233398 2.09352539 17.14233398 3.11352539 C14.17233398 4.76352539 11.20233398 6.41352539 8.14233398 8.11352539 C8.80233398 6.79352539 9.46233398 5.47352539 10.14233398 4.11352539 C10.14233398 3.78352539 10.14233398 3.45352539 10.14233398 3.11352539 C8.20449133 3.25473253 6.26706444 3.40165412 4.32983398 3.55102539 C2.71141602 3.6728418 2.71141602 3.6728418 1.06030273 3.79711914 C-1.91756506 4.01565 -1.91756506 4.01565 -4.85766602 5.11352539 C-6.60612656 5.25039671 -8.35868217 5.33799184 -10.11157227 5.39477539 C-11.64007813 5.45084961 -11.64007813 5.45084961 -13.19946289 5.50805664 C-15.35050038 5.57849692 -17.50154207 5.64880896 -19.65258789 5.71899414 C-20.67030273 5.75637695 -21.68801758 5.79375977 -22.73657227 5.83227539 C-23.67057861 5.86256836 -24.60458496 5.89286133 -25.56689453 5.92407227 C-27.88642209 5.97291507 -27.88642209 5.97291507 -29.85766602 7.11352539 C-31.45028667 7.26528088 -33.04831458 7.36252864 -34.64672852 7.42993164 C-36.05825195 7.49277344 -36.05825195 7.49277344 -37.49829102 7.55688477 C-38.97555664 7.61585937 -38.97555664 7.61585937 -40.48266602 7.67602539 C-41.47524414 7.71920898 -42.46782227 7.76239258 -43.49047852 7.80688477 C-45.94606439 7.91313608 -48.40175305 8.01517503 -50.85766602 8.11352539 C-50.85766602 7.45352539 -50.85766602 6.79352539 -50.85766602 6.11352539 C-49.74391602 5.96915039 -48.63016602 5.82477539 -47.48266602 5.67602539 C-44.03624554 5.32980504 -44.03624554 5.32980504 -41.85766602 4.11352539 C-40.00764587 3.922144 -38.15170643 3.78764561 -36.29516602 3.67602539 C-29.04161252 3.19801925 -21.79295271 2.67270944 -14.54516602 2.11352539 C-13.41715576 2.03046143 -12.28914551 1.94739746 -11.12695312 1.86181641 C-10.07258057 1.77988037 -9.01820801 1.69794434 -7.93188477 1.61352539 C-6.97886475 1.54133789 -6.02584473 1.46915039 -5.04394531 1.39477539 C-2.6617715 1.08832489 -2.30625265 0.14093935 0 0 Z " fill="#103974" transform="translate(320.857666015625,101.886474609375)"/>
<path d="M0 0 C1.38312068 4.14936204 -0.05643221 7.13422834 -1.375 11.125 C-1.60960937 11.86621094 -1.84421875 12.60742188 -2.0859375 13.37109375 C-3.84823534 18.84823534 -3.84823534 18.84823534 -5 20 C-6.77869726 20.15764405 -8.56318476 20.25100677 -10.34765625 20.31640625 C-11.42724609 20.35830078 -12.50683594 20.40019531 -13.61914062 20.44335938 C-14.75544922 20.48267578 -15.89175781 20.52199219 -17.0625 20.5625 C-18.77276367 20.62727539 -18.77276367 20.62727539 -20.51757812 20.69335938 C-23.34492195 20.79982839 -26.17235738 20.90184207 -29 21 C-29.33 21.66 -29.66 22.32 -30 23 C-28.88625 23.0928125 -28.88625 23.0928125 -27.75 23.1875 C-24.1814261 24.24185138 -23.07754772 25.99909773 -21 29 C-26.31624923 29 -30.11900399 25.78727303 -33.9375 22.375 C-36 20 -36 20 -36 18 C-21.15 17.505 -21.15 17.505 -6 17 C-3.81583112 9.04347637 -3.81583112 9.04347637 -2 1 C-1.34 0.67 -0.68 0.34 0 0 Z " fill="#F3D85A" transform="translate(191,19)"/>
<path d="M0 0 C2 1 2 1 2.67578125 2.8125 C3.0996554 4.26875476 3.51635273 5.72711803 3.92578125 7.1875 C4.85552642 9.1917429 4.85552642 9.1917429 7.046875 9.75 C11.80865056 10.15311328 16.54426176 10.0392656 21.31835938 9.9609375 C25.67420892 9.91719675 29.7079822 10.11817291 34 11 C32.65427408 15.03717777 29.96886397 16.62531541 26.55859375 18.8515625 C24.84427485 19.93246934 24.84427485 19.93246934 24 22 C23.34 22 22.68 22 22 22 C22.66 20.35 23.32 18.7 24 17 C24.99 17 25.98 17 27 17 C27 15.68 27 14.36 27 13 C19.41 13 11.82 13 4 13 C4 12.34 4 11.68 4 11 C3.34 11 2.68 11 2 11 C0.19769832 7.17010894 -0.19622241 4.21878192 0 0 Z " fill="#EECC4D" transform="translate(63,26)"/>
<path d="M0 0 C2 1 2 1 2.6328125 2.71484375 C5.90612335 17.49669987 3.14919597 31.30227179 -3 45 C-3.66 45.99 -4.32 46.98 -5 48 C-5.66 48 -6.32 48 -7 48 C-6.01 44.7 -5.02 41.4 -4 38 C-3.34 38 -2.68 38 -2 38 C-1.85820312 37.13890625 -1.71640625 36.2778125 -1.5703125 35.390625 C-1.21053459 33.25167138 -0.83274253 31.1155975 -0.4296875 28.984375 C1.25833895 19.14151656 0.83140078 9.90939845 0 0 Z " fill="#F2873A" transform="translate(377,344)"/>
<path d="M0 0 C-0.99 1.485 -0.99 1.485 -2 3 C-4.43017578 3.34057617 -4.43017578 3.34057617 -7.4453125 3.29296875 C-8.52167969 3.28330078 -9.59804688 3.27363281 -10.70703125 3.26367188 C-11.83496094 3.23853516 -12.96289062 3.21339844 -14.125 3.1875 C-15.26066406 3.17396484 -16.39632812 3.16042969 -17.56640625 3.14648438 C-20.37807387 3.11104319 -23.18880417 3.06163517 -26 3 C-26 3.99 -26 4.98 -26 6 C-25.4225 6.28875 -24.845 6.5775 -24.25 6.875 C-23.5075 7.24625 -22.765 7.6175 -22 8 C-21.278125 8.309375 -20.55625 8.61875 -19.8125 8.9375 C-18 10 -18 10 -17 13 C-22.60268068 10.30241301 -27.39802744 7.17388209 -32 3 C-32 2.34 -32 1.68 -32 1 C-10.46808511 -0.19148936 -10.46808511 -0.19148936 0 0 Z " fill="#F2D556" transform="translate(50,36)"/>
<path d="M0 0 C3.55780196 0.60990891 6.6828589 1.5783681 10 3 C10 3.66 10 4.32 10 5 C10.5775 5.28875 11.155 5.5775 11.75 5.875 C12.4925 6.24625 13.235 6.6175 14 7 C14.680625 7.268125 15.36125 7.53625 16.0625 7.8125 C18.70073065 9.42948008 19.47440077 11.3008629 21 14 C21.99071881 15.278082 22.99162306 16.5483033 24 17.8125 C27.89487592 22.94753541 30.62243667 28.36067555 30 35 C28 31.25 28 31.25 28 29 C27.34 29 26.68 29 26 29 C25.67 26.69 25.34 24.38 25 22 C24.01 21.67 23.02 21.34 22 21 C20.39453125 19.22265625 20.39453125 19.22265625 18.8125 17.0625 C18.28269531 16.35222656 17.75289063 15.64195312 17.20703125 14.91015625 C16 13 16 13 16 11 C15.484375 10.773125 14.96875 10.54625 14.4375 10.3125 C11.68802818 8.83201517 9.26782512 7.07781297 6.75 5.23828125 C5.23737597 4.16796469 3.65441516 3.19837499 2.0625 2.25 C1.381875 1.8375 0.70125 1.425 0 1 C0 0.67 0 0.34 0 0 Z " fill="#F18739" transform="translate(347,308)"/>
<path d="M0 0 C0.66 0 1.32 0 2 0 C2.33 0.66 2.66 1.32 3 2 C4.64363134 2.72159424 6.31050386 3.39351421 8 4 C8 6.64 8 9.28 8 12 C7.34 12 6.68 12 6 12 C6.04125 12.845625 6.0825 13.69125 6.125 14.5625 C5.98464972 18.42213269 5.17219836 21.33688013 4 25 C3.34 25 2.68 25 2 25 C1.67 26.98 1.34 28.96 1 31 C1.99 30.67 2.98 30.34 4 30 C4 30.66 4 31.32 4 32 C0.53846154 35 0.53846154 35 -2 35 C-1.60599095 29.00834518 -0.42936674 24.53895616 2 19 C2.61198744 16.42175614 3.10847204 13.84336849 3.5703125 11.234375 C4 9 4 9 5 6 C4.175 5.38125 3.35 4.7625 2.5 4.125 C1.675 3.42375 0.85 2.7225 0 2 C0 1.34 0 0.68 0 0 Z " fill="#F5DC5D" transform="translate(35,50)"/>
<path d="M0 0 C9.24 0 18.48 0 28 0 C28 1.32 28 2.64 28 4 C24.78571429 7 24.78571429 7 22 7 C22 5.68 22 4.36 22 3 C14.41 3 6.82 3 -1 3 C-0.67 2.01 -0.34 1.02 0 0 Z " fill="#ECCA4C" transform="translate(205,36)"/>
<path d="M0 0 C0.99 0 1.98 0 3 0 C1.25644239 4.98819129 -3.26733035 7.37988025 -7.38867188 10.2890625 C-10.73742162 12.68514075 -10.73742162 12.68514075 -12.921875 16.08203125 C-13.0475345 19.16697194 -12.62566042 21.98545434 -12 25 C-11.34 25.33 -10.68 25.66 -10 26 C-10.66 27.32 -11.32 28.64 -12 30 C-14 28 -14 28 -14.125 24.375 C-14.08375 23.26125 -14.0425 22.1475 -14 21 C-14.66 21 -15.32 21 -16 21 C-16.1875 17.625 -16.1875 17.625 -16 14 C-15.01 13.34 -14.02 12.68 -13 12 C-12.62875 11.0409375 -12.62875 11.0409375 -12.25 10.0625 C-10.3320952 6.89795709 -7.34176641 6.3725112 -4 5 C-3.34 4.01 -2.68 3.02 -2 2 C-1.34 2 -0.68 2 0 2 C0 1.34 0 0.68 0 0 Z " fill="#F3D858" transform="translate(363,41)"/>
<path d="M0 0 C6.01738755 1.25362241 10.52638795 3.72392407 15 8 C15 8.66 15 9.32 15 10 C17.475 10.495 17.475 10.495 20 11 C20.33 11.99 20.66 12.98 21 14 C21.66 14 22.32 14 23 14 C22.67 12.35 22.34 10.7 22 9 C24 10 24 10 24.6328125 11.84765625 C24.87644531 12.94400391 24.87644531 12.94400391 25.125 14.0625 C25.29257813 14.79597656 25.46015625 15.52945313 25.6328125 16.28515625 C25.75398438 16.85105469 25.87515625 17.41695312 26 18 C21.51633365 17.50181485 20.11078414 16.13223783 17 13 C14.72646639 11.16559126 12.37068532 9.45609989 10 7.75 C9.38382813 7.29109375 8.76765625 6.8321875 8.1328125 6.359375 C4.72730732 3.90390345 3.31608784 3 -1 3 C-0.67 2.01 -0.34 1.02 0 0 Z " fill="#F3DA59" transform="translate(57,67)"/>
<path d="M0 0 C0.66 0 1.32 0 2 0 C4.97 8.91 7.94 17.82 11 27 C9.68 26.34 8.36 25.68 7 25 C7 23.02 7 21.04 7 19 C6.34 19 5.68 19 5 19 C5 17.35 5 15.7 5 14 C4.34 14 3.68 14 3 14 C3 12.35 3 10.7 3 9 C0.69 9 -1.62 9 -4 9 C-3.34 8.67 -2.68 8.34 -2 8 C-1.61866701 6.0085944 -1.28674418 4.00720923 -1 2 C-0.67 1.34 -0.34 0.68 0 0 Z " fill="#F0D552" transform="translate(194,9)"/>
<path d="M0 0 C1.3303125 0.495 1.3303125 0.495 2.6875 1 C7.31520878 2.33689365 11.84213028 2.08697051 16.62109375 2.00390625 C21.45129823 1.9983222 26.20401546 2.46177328 31 3 C29.25 6.875 29.25 6.875 27 8 C27 7.34 27 6.68 27 6 C14.13 5.505 14.13 5.505 1 5 C0.67 3.35 0.34 1.7 0 0 Z " fill="#F6DB59" transform="translate(340,34)"/>
<path d="M0 0 C0.67804688 0.0721875 1.35609375 0.144375 2.0546875 0.21875 C12.74712582 1.87022663 12.74712582 1.87022663 23 0 C24.54023996 -0.06950541 26.08334988 -0.08452357 27.625 -0.0625 C28.85089844 -0.04896484 28.85089844 -0.04896484 30.1015625 -0.03515625 C31.04128906 -0.01775391 31.04128906 -0.01775391 32 0 C31 2 31 2 27.93359375 3.109375 C23.99207626 4.13471237 20.11952416 4.3044567 16.0625 4.25 C15.36318359 4.24613281 14.66386719 4.24226563 13.94335938 4.23828125 C8.98204159 4.15505318 4.69173809 3.5639127 0 2 C0 1.34 0 0.68 0 0 Z " fill="#F08232" transform="translate(312,413)"/>
<path d="M0 0 C0.66 0 1.32 0 2 0 C2.67413211 1.91405367 3.3390332 3.83136026 4 5.75 C4.37125 6.81734375 4.7425 7.8846875 5.125 8.984375 C6 12 6 12 6 16 C5.34 16 4.68 16 4 16 C2.14223235 12.86501708 1.79859524 10.62528568 2 7 C-0.8326134 8.4163067 -1.01707833 10.14497293 -2.125 13.0625 C-2.47820313 13.98160156 -2.83140625 14.90070312 -3.1953125 15.84765625 C-3.46085937 16.55792969 -3.72640625 17.26820312 -4 18 C-4.33 18 -4.66 18 -5 18 C-4.42934122 11.58008874 -2.32655091 5.98410537 0 0 Z " fill="#F2DF69" transform="translate(57,9)"/>
<path d="M0 0 C0.66 0 1.32 0 2 0 C2.96100105 2.68657212 3.91886249 5.37419711 4.875 8.0625 C5.14441406 8.81466797 5.41382813 9.56683594 5.69140625 10.34179688 C7.29490891 14.85898121 8.73509086 19.37632728 10 24 C9.01 23.67 8.02 23.34 7 23 C6 20.875 6 20.875 5 18 C4.46375 16.845 3.9275 15.69 3.375 14.5 C2.11294518 11.28749681 1.69266285 9.38070861 2 6 C1.01 6.33 0.02 6.66 -1 7 C-0.67 4.69 -0.34 2.38 0 0 Z " fill="#F3D856" transform="translate(331,9)"/>
<path d="M0 0 C0.33 0.99 0.66 1.98 1 3 C-3.18320531 4.94133217 -7.27339058 5.57143924 -11.8125 6.0625 C-12.82280273 6.17948242 -12.82280273 6.17948242 -13.85351562 6.29882812 C-15.20886281 6.45576306 -16.56449665 6.61024276 -17.92041016 6.76220703 C-21.28383588 7.14680161 -24.64146339 7.5750116 -28 8 C-28 7.34 -28 6.68 -28 6 C-25.79344925 5.49219106 -23.58466395 4.99408635 -21.375 4.5 C-20.14523438 4.2215625 -18.91546875 3.943125 -17.6484375 3.65625 C-14.32847772 3.05908379 -11.36091549 2.87590466 -8 3 C-7.67 2.34 -7.34 1.68 -7 1 C-4.67843403 0.59270772 -2.3431213 0.25561323 0 0 Z " fill="#103A77" transform="translate(267,108)"/>
<path d="M0 0 C0.66 0 1.32 0 2 0 C1.67 1.65 1.34 3.3 1 5 C4.465 4.505 4.465 4.505 8 4 C8 4.66 8 5.32 8 6 C2.58823529 10 2.58823529 10 0 10 C0 10.66 0 11.32 0 12 C-1.32 12.33 -2.64 12.66 -4 13 C-3.52511102 11.01980257 -3.04497141 9.04086365 -2.5625 7.0625 C-2.29566406 5.96035156 -2.02882813 4.85820313 -1.75390625 3.72265625 C-1 1 -1 1 0 0 Z " fill="#EBD562" transform="translate(311,72)"/>
<path d="M0 0 C0.99 0.33 1.98 0.66 3 1 C-3.34469 8.63608708 -9.87298776 15.66400005 -19 20 C-21.3515625 19.703125 -21.3515625 19.703125 -23 19 C-22.38253906 18.64808594 -21.76507813 18.29617188 -21.12890625 17.93359375 C-8.83482408 10.81299856 -8.83482408 10.81299856 0 0 Z " fill="#F38C3D" transform="translate(368,393)"/>
<path d="M0 0 C1.97119141 -0.34057617 1.97119141 -0.34057617 4.3515625 -0.29296875 C5.62773437 -0.2784668 5.62773437 -0.2784668 6.9296875 -0.26367188 C7.81914062 -0.23853516 8.70859375 -0.21339844 9.625 -0.1875 C10.97078125 -0.16719727 10.97078125 -0.16719727 12.34375 -0.14648438 C14.56309789 -0.11106925 16.78125188 -0.06168461 19 0 C19 0.99 19 1.98 19 3 C16.03 4.65 13.06 6.3 10 8 C10.66 6.68 11.32 5.36 12 4 C12 3.67 12 3.34 12 3 C7.38 3 2.76 3 -2 3 C-1.34 2.01 -0.68 1.02 0 0 Z " fill="#21406B" transform="translate(319,102)"/>
<path d="M0 0 C0 3 0 3 -2.01171875 5.3046875 C-2.89472656 6.15289062 -3.77773438 7.00109375 -4.6875 7.875 C-5.55761719 8.71804687 -6.42773438 9.56109375 -7.32421875 10.4296875 C-8.20722656 11.27789062 -9.09023438 12.12609375 -10 13 C-12.89575849 15.84835768 -15.69419336 18.70706654 -18.3125 21.8125 C-18.82425781 22.41707031 -19.33601563 23.02164063 -19.86328125 23.64453125 C-20.23839844 24.09183594 -20.61351562 24.53914063 -21 25 C-21.66 24.34 -22.32 23.68 -23 23 C-22.36191406 22.37351563 -21.72382813 21.74703125 -21.06640625 21.1015625 C-20.24011719 20.28429687 -19.41382813 19.46703125 -18.5625 18.625 C-17.32693359 17.40683594 -17.32693359 17.40683594 -16.06640625 16.1640625 C-13.96565328 14.17651485 -13.96565328 14.17651485 -13 12 C-12.34 12 -11.68 12 -11 12 C-10.76539063 11.42765625 -10.53078125 10.8553125 -10.2890625 10.265625 C-8.70593415 7.48315699 -6.8008475 5.82929786 -4.375 3.75 C-3.55773437 3.04359375 -2.74046875 2.3371875 -1.8984375 1.609375 C-1.27195312 1.07828125 -0.64546875 0.5471875 0 0 Z " fill="#0C3979" transform="translate(297,133)"/>
<path d="M0 0 C0 0.99 0 1.98 0 3 C-0.66 3.66 -1.32 4.32 -2 5 C-1.35631658 7.12565222 -0.70998756 9.25050346 -0.0625 11.375 C0.29714844 12.55835937 0.65679687 13.74171875 1.02734375 14.9609375 C1.87576274 17.87926818 1.87576274 17.87926818 3 20 C2.34 20.99 1.68 21.98 1 23 C-2.97195167 15.59772644 -4.33855089 9.29449686 -4 1 C-2.68 0.67 -1.36 0.34 0 0 Z " fill="#F3DA59" transform="translate(77,52)"/>
<path d="M0 0 C0.66 0.33 1.32 0.66 2 1 C2.8515625 3.72265625 2.8515625 3.72265625 3.625 7.0625 C3.88539063 8.16722656 4.14578125 9.27195312 4.4140625 10.41015625 C4.60742188 11.26480469 4.80078125 12.11945313 5 13 C1.93124691 11.5360077 -0.90434743 9.85990364 -3.75 8 C-4.54921875 7.484375 -5.3484375 6.96875 -6.171875 6.4375 C-7.07679688 5.7259375 -7.07679688 5.7259375 -8 5 C-8 4.34 -8 3.68 -8 3 C-5.525 3.99 -5.525 3.99 -3 5 C-3 5.66 -3 6.32 -3 7 C-1.68 7 -0.36 7 1 7 C0.67 4.69 0.34 2.38 0 0 Z " fill="#F0D965" transform="translate(352,72)"/>
<path d="M0 0 C2.48942149 1.47502105 4.87272153 3.03211415 7 5 C7 5.66 7 6.32 7 7 C4.29320616 6.02254667 2.21365265 5.18026942 0 3.3125 C-1.91481673 1.79425383 -1.91481673 1.79425383 -4.25 2 C-8.19532284 3.43466285 -11.52838533 5.66548989 -15 8 C-13.328125 4.15625 -13.328125 4.15625 -10.375 2.75 C-9.59125 2.5025 -8.8075 2.255 -8 2 C-8 1.34 -8 0.68 -8 0 C-4.52931203 -1.15689599 -3.4505468 -1.09790125 0 0 Z " fill="#F1DB5D" transform="translate(336,68)"/>
<path d="M0 0 C2.64525803 0.95523207 4.81123085 1.85699307 7.0625 3.5625 C9.07687729 5.05703799 10.55493989 5.56338212 13 6 C13 6.66 13 7.32 13 8 C14.32 8.33 15.64 8.66 17 9 C16.67 9.66 16.34 10.32 16 11 C10.34115395 9.54901383 5.48351309 6.70951715 1 3 C0.67 2.01 0.34 1.02 0 0 Z " fill="#F3883A" transform="translate(295,403)"/>
<path d="M0 0 C2 1 2 1 2.6328125 2.71484375 C3.89754158 8.42619966 4.71778427 14.15216932 4 20 C3.34 20.99 2.68 21.98 2 23 C-0.29612756 7.25512528 -0.29612756 7.25512528 0 0 Z " fill="#FB9442" transform="translate(377,344)"/>
<path d="M0 0 C0.99 0 1.98 0 3 0 C2.67 1.65 2.34 3.3 2 5 C-2.95 5 -7.9 5 -13 5 C-13.33 4.34 -13.66 3.68 -14 3 C-10.85069107 1.95023036 -8.61185544 1.89868405 -5.3125 1.9375 C-4.31863281 1.94652344 -3.32476562 1.95554688 -2.30078125 1.96484375 C-1.16189453 1.98224609 -1.16189453 1.98224609 0 2 C0 1.34 0 0.68 0 0 Z " fill="#F6D856" transform="translate(322,34)"/>
<path d="M0 0 C1.32 0.33 2.64 0.66 4 1 C1.89746067 2.79360702 -0.20694333 4.58494119 -2.3125 6.375 C-3.20485352 7.13683594 -3.20485352 7.13683594 -4.11523438 7.9140625 C-4.69208984 8.40390625 -5.26894531 8.89375 -5.86328125 9.3984375 C-6.39219971 9.84880371 -6.92111816 10.29916992 -7.46606445 10.76318359 C-8.91162467 11.92874273 -10.45494456 12.96996304 -12 14 C-12.33984375 11.73046875 -12.33984375 11.73046875 -12 9 C-9.62890625 7.05078125 -9.62890625 7.05078125 -6.5625 5.3125 C-2.60785949 3.30916741 -2.60785949 3.30916741 0 0 Z " fill="#F0FAFD" transform="translate(125,164)"/>
<path d="M0 0 C0.66 0.33 1.32 0.66 2 1 C1.43490723 1.34780518 0.86981445 1.69561035 0.28759766 2.05395508 C-2.27069677 3.63361373 -4.82286282 5.22291456 -7.375 6.8125 C-8.26445313 7.35970703 -9.15390625 7.90691406 -10.0703125 8.47070312 C-11.34648438 9.26831055 -11.34648438 9.26831055 -12.6484375 10.08203125 C-13.82672119 10.81256714 -13.82672119 10.81256714 -15.02880859 11.55786133 C-17.25918716 13.01611973 -17.25918716 13.01611973 -19 16 C-20.32 15.67 -21.64 15.34 -23 15 C-5.328226 2.05410582 -5.328226 2.05410582 0 0 Z " fill="#17407E" transform="translate(129,154)"/>
<path d="M0 0 C0.99 0.33 1.98 0.66 3 1 C3 1.66 3 2.32 3 3 C4.32 3 5.64 3 7 3 C7.33 3.66 7.66 4.32 8 5 C10.52733235 5.65555119 10.52733235 5.65555119 13 6 C13.33 7.65 13.66 9.3 14 11 C8.67568021 8.92943119 4.94896479 7.21222911 1 3 C0.34 2.34 -0.32 1.68 -1 1 C-0.67 0.67 -0.34 0.34 0 0 Z " fill="#E9D566" transform="translate(206,74)"/>
<path d="M0 0 C0.99 0.495 0.99 0.495 2 1 C2.41706151 2.29974649 2.78550238 3.61537194 3.125 4.9375 C4.21919636 8.15863836 4.21919636 8.15863836 6.97265625 9.97265625 C9.43469272 10.59909317 9.43469272 10.59909317 13 11 C13 11.33 13 11.66 13 12 C11.54176788 12.0270043 10.08339325 12.04639787 8.625 12.0625 C7.81289062 12.07410156 7.00078125 12.08570313 6.1640625 12.09765625 C4 12 4 12 2 11 C0.06669424 7.24079436 -0.19491883 4.19075475 0 0 Z " fill="#F6E05F" transform="translate(63,26)"/>
<path d="M0 0 C0.66 0.33 1.32 0.66 2 1 C1.2575 1.70125 0.515 2.4025 -0.25 3.125 C-2.92917309 5.92595368 -4.87239104 8.77427029 -7 12 C-8.29470975 13.37086915 -9.62150897 14.71340837 -11 16 C-11.66 16.66 -12.32 17.32 -13 18 C-11.75634861 10.78354914 -5.16816112 4.85493923 0 0 Z " fill="#F58F42" transform="translate(295,314)"/>
<path d="M0 0 C1.65 0 3.3 0 5 0 C5 0.99 5 1.98 5 3 C5.928125 3.391875 6.85625 3.78375 7.8125 4.1875 C11.22550118 6.12822616 12.31198404 7.53018941 14 11 C12.66666667 10.33333333 11.33333333 9.66666667 10 9 C9.01 8.5875 8.02 8.175 7 7.75 C3.46042943 5.6852505 2.02876741 3.5113282 0 0 Z " fill="#F4DA59" transform="translate(156,38)"/>
<path d="M0 0 C1.63001953 0.15275391 1.63001953 0.15275391 3.29296875 0.30859375 C4.54013672 0.43427734 4.54013672 0.43427734 5.8125 0.5625 C4.0625 4.4375 4.0625 4.4375 1.8125 5.5625 C1.8125 4.9025 1.8125 4.2425 1.8125 3.5625 C-1.8175 3.2325 -5.4475 2.9025 -9.1875 2.5625 C-9.1875 1.9025 -9.1875 1.2425 -9.1875 0.5625 C-5.76060364 -0.57979879 -3.57647782 -0.34611076 0 0 Z " fill="#ECCF57" transform="translate(365.1875,36.4375)"/>
<path d="M0 0 C2.31 0 4.62 0 7 0 C5.88378181 3.34865457 5.32525771 3.71566145 2.5 5.5625 C-0.25536594 7.31619395 -0.25536594 7.31619395 -2 10 C-2.66 10 -3.32 10 -4 10 C-3.34 8.35 -2.68 6.7 -2 5 C-1.01 5 -0.02 5 1 5 C0.67 3.35 0.34 1.7 0 0 Z " fill="#F3DB5F" transform="translate(89,38)"/>
<path d="M0 0 C1.58294782 -0.05437607 3.16644256 -0.09296271 4.75 -0.125 C5.63171875 -0.14820313 6.5134375 -0.17140625 7.421875 -0.1953125 C10.1135858 0.00860498 11.69904974 0.63448279 14 2 C10.71480525 3.09506492 8.26336585 3.09960608 4.8125 3.0625 C3.18248047 3.04896484 3.18248047 3.04896484 1.51953125 3.03515625 C0.68808594 3.02355469 -0.14335937 3.01195312 -1 3 C-0.67 2.01 -0.34 1.02 0 0 Z " fill="#F7DD5D" transform="translate(205,36)"/>
<path d="M0 0 C0.66 0 1.32 0 2 0 C1.67702486 1.66870487 1.33986667 3.33465333 1 5 C0.8659375 5.74765625 0.731875 6.4953125 0.59375 7.265625 C0.4390625 8.06484375 0.284375 8.8640625 0.125 9.6875 C-0.01679688 10.45449219 -0.15859375 11.22148437 -0.3046875 12.01171875 C-1 14 -1 14 -4 16 C-3.67 12.7 -3.34 9.4 -3 6 C-2.34 6 -1.68 6 -1 6 C-0.67 4.02 -0.34 2.04 0 0 Z " fill="#F4DC5E" transform="translate(328,17)"/>
<path d="M0 0 C0 0.66 0 1.32 0 2 C-0.61488281 2.33773437 -1.22976562 2.67546875 -1.86328125 3.0234375 C-2.67152344 3.46945313 -3.47976562 3.91546875 -4.3125 4.375 C-5.11300781 4.81585938 -5.91351563 5.25671875 -6.73828125 5.7109375 C-8.53527943 6.73513335 -10.27900708 7.85267138 -12 9 C-12.33 7.68 -12.66 6.36 -13 5 C-11.21046815 4.16209211 -9.41830305 3.32980604 -7.625 2.5 C-6.62726563 2.0359375 -5.62953125 1.571875 -4.6015625 1.09375 C-2 0 -2 0 0 0 Z " fill="#DBE8F2" transform="translate(184,148)"/>
<path d="M0 0 C2.475 0.99 2.475 0.99 5 2 C5 4.97 5 7.94 5 11 C4.01 11.33 3.02 11.66 2 12 C2.04125 10.7625 2.0825 9.525 2.125 8.25 C2.13658291 4.98362038 1.8568702 2.7853053 0 0 Z " fill="#F3D958" transform="translate(312,52)"/>
<path d="M0 0 C0.33 1.32 0.66 2.64 1 4 C-2.26613695 5.91302307 -4.99445248 6.35674661 -8.75 6.625 C-9.73484375 6.69976562 -10.7196875 6.77453125 -11.734375 6.8515625 C-12.48203125 6.90054688 -13.2296875 6.94953125 -14 7 C-14 6.34 -14 5.68 -14 5 C-13.07316406 4.80664062 -12.14632812 4.61328125 -11.19140625 4.4140625 C-9.99386719 4.15367188 -8.79632813 3.89328125 -7.5625 3.625 C-6.36753906 3.36976562 -5.17257813 3.11453125 -3.94140625 2.8515625 C-2.97074219 2.57054688 -2.00007812 2.28953125 -1 2 C-0.67 1.34 -0.34 0.68 0 0 Z " fill="#113B78" transform="translate(236,113)"/>
<path d="M0 0 C2.64 0.66 5.28 1.32 8 2 C7.01 2.66 6.02 3.32 5 4 C6.32 5.32 7.64 6.64 9 8 C8.67 8.66 8.34 9.32 8 10 C6.65787938 8.90653119 5.32652025 7.7998425 4 6.6875 C3.2575 6.07261719 2.515 5.45773438 1.75 4.82421875 C0 3 0 3 0 0 Z " fill="#F2DC68" transform="translate(293,36)"/>
<path d="M0 0 C4.27341914 0.47482435 6.10319428 3.03077413 9 6 C9.7425 6.37125 10.485 6.7425 11.25 7.125 C11.8275 7.41375 12.405 7.7025 13 8 C13.33 8.99 13.66 9.98 14 11 C8.48572889 8.34498057 4.18397642 5.54260297 0 1 C0 0.67 0 0.34 0 0 Z " fill="#F5DF67" transform="translate(19,38)"/>
<path d="M0 0 C3.89075454 1.29691818 6.52462743 2.66776769 9 6 C8.75 8.75 8.75 8.75 8 11 C7.7525 10.38125 7.505 9.7625 7.25 9.125 C6.18539778 6.85708859 6.18539778 6.85708859 4 6.0625 C1.25013332 4.60163333 0.91166696 2.88694538 0 0 Z " fill="#F5DD5A" transform="translate(171,49)"/>
<path d="M0 0 C0.99 0.33 1.98 0.66 3 1 C1.71034824 2.37562854 0.37310707 3.70766393 -1 5 C-1.66 5 -2.32 5 -3 5 C-3.268125 5.639375 -3.53625 6.27875 -3.8125 6.9375 C-5 9 -5 9 -8 10 C-6.34908222 5.70761377 -3.26245434 3.1206085 0 0 Z " fill="#15376D" transform="translate(109,181)"/>
<path d="M0 0 C0.66 0.33 1.32 0.66 2 1 C-0.97 3.64 -3.94 6.28 -7 9 C-7.33 7.68 -7.66 6.36 -8 5 C-5.45378681 2.99940392 -3.01962385 1.20784954 0 0 Z " fill="#EAF6FC" transform="translate(213,149)"/>
<path d="M0 0 C0.66 0 1.32 0 2 0 C0.9318153 5.11365014 -0.23107476 10.07227969 -2 15 C-2.66 15 -3.32 15 -4 15 C-3.52396226 12.87429688 -3.04407402 10.74945573 -2.5625 8.625 C-2.29566406 7.44164062 -2.02882812 6.25828125 -1.75390625 5.0390625 C-1 2 -1 2 0 0 Z " fill="#0E2D62" transform="translate(187,242)"/>
<path d="M0 0 C0.66 0 1.32 0 2 0 C1.67 1.98 1.34 3.96 1 6 C1.99 5.67 2.98 5.34 4 5 C4 5.66 4 6.32 4 7 C0.53846154 10 0.53846154 10 -2 10 C-1.85950482 8.52031676 -1.71245174 7.04125484 -1.5625 5.5625 C-1.48128906 4.73878906 -1.40007813 3.91507812 -1.31640625 3.06640625 C-1 1 -1 1 0 0 Z " fill="#F3E471" transform="translate(35,75)"/>
<path d="M0 0 C1.60080151 4.00200378 0.29279692 7.04556236 -1 11 C-1.99 11 -2.98 11 -4 11 C-3.71890887 9.35232753 -3.42481474 7.70686855 -3.125 6.0625 C-2.96257813 5.14597656 -2.80015625 4.22945313 -2.6328125 3.28515625 C-2.42398438 2.53105469 -2.21515625 1.77695313 -2 1 C-1.34 0.67 -0.68 0.34 0 0 Z " fill="#F1D454" transform="translate(40,64)"/>
<path d="M0 0 C3.63 0.33 7.26 0.66 11 1 C11 1.66 11 2.32 11 3 C11.66 3.33 12.32 3.66 13 4 C11.58297487 3.85769192 10.1663904 3.71099254 8.75 3.5625 C7.56664062 3.44068359 7.56664062 3.44068359 6.359375 3.31640625 C4.17635361 3.02365007 2.1226818 2.57935581 0 2 C0 1.34 0 0.68 0 0 Z " fill="#F58938" transform="translate(312,413)"/>
<path d="M0 0 C0.99 0.495 0.99 0.495 2 1 C3.425 8.3625 3.425 8.3625 1 12 C-0.3271261 8.0186217 -0.06915913 4.14954773 0 0 Z " fill="#F28536" transform="translate(377,344)"/>
<path d="M0 0 C0.66 0 1.32 0 2 0 C2.66 2.31 3.32 4.62 4 7 C3.34 7 2.68 7 2 7 C1.67 6.34 1.34 5.68 1 5 C0.34 6.32 -0.32 7.64 -1 9 C-1.99 8.67 -2.98 8.34 -4 8 C-3.34 8 -2.68 8 -2 8 C-1.7834375 6.576875 -1.7834375 6.576875 -1.5625 5.125 C-1 2 -1 2 0 0 Z " fill="#F5E26B" transform="translate(194,9)"/>
<path d="M0 0 C0.66 0.33 1.32 0.66 2 1 C-0.64 3.97 -3.28 6.94 -6 10 C-6.66 9.67 -7.32 9.34 -8 9 C-5.36 6.03 -2.72 3.06 0 0 Z " fill="#0F2E65" transform="translate(141,186)"/>
<path d="M0 0 C2 1 2 1 2.6328125 2.84765625 C2.79523438 3.57855469 2.95765625 4.30945313 3.125 5.0625 C3.29257813 5.79597656 3.46015625 6.52945313 3.6328125 7.28515625 C3.75398438 7.85105469 3.87515625 8.41695312 4 9 C2.35 8.67 0.7 8.34 -1 8 C-1.33 6.68 -1.66 5.36 -2 4 C-1.01 4.33 -0.02 4.66 1 5 C0.67 3.35 0.34 1.7 0 0 Z " fill="#F2E171" transform="translate(79,76)"/>
<path d="M0 0 C2.97 0.33 5.94 0.66 9 1 C7 3 7 3 4.8359375 3.1953125 C3.61777344 3.16050781 3.61777344 3.16050781 2.375 3.125 C1.55773437 3.10695313 0.74046875 3.08890625 -0.1015625 3.0703125 C-0.72804688 3.04710938 -1.35453125 3.02390625 -2 3 C-1.34 2.01 -0.68 1.02 0 0 Z " fill="#1E477B" transform="translate(319,102)"/>
<path d="M0 0 C1 3 1 3 0.00390625 5.04296875 C-0.47175781 5.75066406 -0.94742188 6.45835937 -1.4375 7.1875 C-1.91058594 7.90292969 -2.38367188 8.61835938 -2.87109375 9.35546875 C-3.24363281 9.89816406 -3.61617188 10.44085938 -4 11 C-4.66 10.67 -5.32 10.34 -6 10 C-4.02 6.7 -2.04 3.4 0 0 Z " fill="#0E2D63" transform="translate(80,218)"/>
<path d="M0 0 C0 0.99 0 1.98 0 3 C-1.53125 4.38671875 -1.53125 4.38671875 -3.5 5.6875 C-4.47453125 6.34298828 -4.47453125 6.34298828 -5.46875 7.01171875 C-5.9740625 7.33785156 -6.479375 7.66398437 -7 8 C-7.66 7.67 -8.32 7.34 -9 7 C-7.68 6.34 -6.36 5.68 -5 5 C-5 4.34 -5 3.68 -5 3 C-2.5 1.375 -2.5 1.375 0 0 Z " fill="#0F3975" transform="translate(328,108)"/>
<path d="M0 0 C0.66 0 1.32 0 2 0 C2.99 3.3 3.98 6.6 5 10 C3.68 9.34 2.36 8.68 1 8 C0.16113831 5.32209537 0.18233586 2.8262059 0 0 Z " fill="#F4DB5B" transform="translate(200,26)"/>
<path d="M0 0 C0.66 0 1.32 0 2 0 C1.41196203 3.02419525 0.77321882 6.01758453 0 9 C-0.99 8.67 -1.98 8.34 -3 8 C-2.01 5.36 -1.02 2.72 0 0 Z " fill="#113168" transform="translate(191,230)"/>
<path d="M0 0 C1.32 0.33 2.64 0.66 4 1 C1.36 2.98 -1.28 4.96 -4 7 C-4.66 6.34 -5.32 5.68 -6 5 C-5.195625 4.54625 -4.39125 4.0925 -3.5625 3.625 C-0.91143428 2.25274335 -0.91143428 2.25274335 0 0 Z " fill="#B7C9DD" transform="translate(125,164)"/>
<path d="M0 0 C0.66 0 1.32 0 2 0 C2.33 2.31 2.66 4.62 3 7 C1.68 7 0.36 7 -1 7 C-0.67 4.69 -0.34 2.38 0 0 Z " fill="#F1DF71" transform="translate(331,9)"/>
<path d="M0 0 C0.33 0 0.66 0 1 0 C1.33 3.63 1.66 7.26 2 11 C1.01 10.67 0.02 10.34 -1 10 C-0.67 6.7 -0.34 3.4 0 0 Z " fill="#F07C2C" transform="translate(378,362)"/>
<path d="M0 0 C1.07349791 4.29399165 0.79682816 5.19495213 -1 9 C-1.99 8.67 -2.98 8.34 -4 8 C-2.68 5.36 -1.36 2.72 0 0 Z " fill="#12356B" transform="translate(108,240)"/>
<path d="M0 0 C0.33 0.99 0.66 1.98 1 3 C-0.32 4.32 -1.64 5.64 -3 7 C-3.99 6.67 -4.98 6.34 -6 6 C-4.02 4.02 -2.04 2.04 0 0 Z " fill="#06285F" transform="translate(149,177)"/>
<path d="M0 0 C0.33 0.99 0.66 1.98 1 3 C-1.97 5.475 -1.97 5.475 -5 8 C-4.45773019 4.20411134 -2.79872437 2.52788007 0 0 Z " fill="#082A64" transform="translate(232,164)"/>
<path d="M0 0 C0.33 0.99 0.66 1.98 1 3 C-0.32 4.32 -1.64 5.64 -3 7 C-3.99 6.67 -4.98 6.34 -6 6 C-4.02 4.02 -2.04 2.04 0 0 Z " fill="#072B63" transform="translate(161,165)"/>
<path d="M0 0 C1.65 0 3.3 0 5 0 C5 0.99 5 1.98 5 3 C5.99 3.33 6.98 3.66 8 4 C7.67 4.66 7.34 5.32 7 6 C6.01 6 5.02 6 4 6 C1.8125 3 1.8125 3 0 0 Z " fill="#F6DE6A" transform="translate(156,38)"/>
<path d="M0 0 C0.66 0.33 1.32 0.66 2 1 C0.86695008 4.39914975 -0.12518475 5.05254451 -3 7 C-3.66 6.67 -4.32 6.34 -5 6 C-4.34 4.68 -3.68 3.36 -3 2 C-2.01 2 -1.02 2 0 2 C0 1.34 0 0.68 0 0 Z " fill="#F4E071" transform="translate(232,36)"/>
<path d="M0 0 C0.99 0.33 1.98 0.66 3 1 C3.33 3.31 3.66 5.62 4 8 C3.34 8 2.68 8 2 8 C0.23537317 4.91190305 0 3.76687864 0 0 Z " fill="#F2D553" transform="translate(59,17)"/>
<path d="M0 0 C4 1 4 1 4 1 Z " fill="#F98932" transform="translate(282,397)"/>
<path d="" fill="#F38737" transform="translate(0,0)"/>
<path d="" fill="#FA791E" transform="translate(0,0)"/>
<path d="" fill="#F8781E" transform="translate(0,0)"/>
<path d="" fill="#F0741D" transform="translate(0,0)"/>
<path d="" fill="#F3873F" transform="translate(0,0)"/>
<path d="" fill="#5374A3" transform="translate(0,0)"/>
<path d="" fill="#113F7F" transform="translate(0,0)"/>
<path d="" fill="#395E90" transform="translate(0,0)"/>
<path d="M0 0 C2 1 2 1 2 1 Z " fill="#0D3671" transform="translate(303,132)"/>
<path d="" fill="#123C75" transform="translate(0,0)"/>
<path d="M0 0 C2 1 2 1 2 1 Z " fill="#2D5077" transform="translate(224,112)"/>
<path d="" fill="#234977" transform="translate(0,0)"/>
<path d="M0 0 C2 1 2 1 2 1 Z " fill="#65705C" transform="translate(212,85)"/>
<path d="M0 0 C2 1 2 1 2 1 Z " fill="#838353" transform="translate(307,70)"/>
<path d="M0 0 C2 1 2 1 2 1 Z " fill="#EBC53B" transform="translate(17,46)"/>
<path d="M0 0 C2 1 2 1 2 1 Z " fill="#E9C339" transform="translate(299,34)"/>
<path d="" fill="#3F6393" transform="translate(0,0)"/>
<path d="" fill="#35598A" transform="translate(0,0)"/>
<path d="" fill="#3C5E8D" transform="translate(0,0)"/>
<path d="" fill="#3D5F8D" transform="translate(0,0)"/>
<path d="" fill="#18488B" transform="translate(0,0)"/>
<path d="" fill="#3D5F8D" transform="translate(0,0)"/>
<path d="" fill="#4F6D97" transform="translate(0,0)"/>
<path d="" fill="#E7701C" transform="translate(0,0)"/>
<path d="" fill="#E7701C" transform="translate(0,0)"/>
<path d="" fill="#F7751C" transform="translate(0,0)"/>
<path d="" fill="#F28836" transform="translate(0,0)"/>
<path d="" fill="#EF853B" transform="translate(0,0)"/>
<path d="" fill="#E7701C" transform="translate(0,0)"/>
<path d="" fill="#F28839" transform="translate(0,0)"/>
<path d="" fill="#F28433" transform="translate(0,0)"/>
<path d="" fill="#EE8737" transform="translate(0,0)"/>
<path d="" fill="#ED7F33" transform="translate(0,0)"/>
<path d="" fill="#F48C39" transform="translate(0,0)"/>
<path d="" fill="#F08937" transform="translate(0,0)"/>
<path d="" fill="#E7701C" transform="translate(0,0)"/>
<path d="" fill="#E7701C" transform="translate(0,0)"/>
<path d="" fill="#F48A3B" transform="translate(0,0)"/>
<path d="" fill="#F1741D" transform="translate(0,0)"/>
<path d="" fill="#FC8835" transform="translate(0,0)"/>
<path d="" fill="#F48434" transform="translate(0,0)"/>
<path d="" fill="#FE7D1F" transform="translate(0,0)"/>
<path d="" fill="#E7701C" transform="translate(0,0)"/>
<path d="" fill="#FD8D38" transform="translate(0,0)"/>
<path d="" fill="#E6701C" transform="translate(0,0)"/>
<path d="" fill="#FE9945" transform="translate(0,0)"/>
<path d="" fill="#E7701C" transform="translate(0,0)"/>
<path d="" fill="#E7701C" transform="translate(0,0)"/>
<path d="" fill="#E7701C" transform="translate(0,0)"/>
<path d="" fill="#F28839" transform="translate(0,0)"/>
<path d="" fill="#FE9F4B" transform="translate(0,0)"/>
<path d="" fill="#F08E3C" transform="translate(0,0)"/>
<path d="" fill="#F08031" transform="translate(0,0)"/>
<path d="" fill="#E7701C" transform="translate(0,0)"/>
<path d="" fill="#F5711C" transform="translate(0,0)"/>
<path d="" fill="#FE9138" transform="translate(0,0)"/>
<path d="" fill="#E7701C" transform="translate(0,0)"/>
<path d="" fill="#FD9740" transform="translate(0,0)"/>
<path d="" fill="#F1741D" transform="translate(0,0)"/>
<path d="" fill="#3C6195" transform="translate(0,0)"/>
<path d="" fill="#4D6C96" transform="translate(0,0)"/>
<path d="" fill="#50709C" transform="translate(0,0)"/>
<path d="" fill="#51719E" transform="translate(0,0)"/>
<path d="" fill="#51719E" transform="translate(0,0)"/>
<path d="" fill="#446593" transform="translate(0,0)"/>
<path d="" fill="#234B84" transform="translate(0,0)"/>
<path d="" fill="#6985AC" transform="translate(0,0)"/>
<path d="" fill="#395A8B" transform="translate(0,0)"/>
<path d="" fill="#395D91" transform="translate(0,0)"/>
<path d="" fill="#6581A7" transform="translate(0,0)"/>
<path d="" fill="#254D88" transform="translate(0,0)"/>
<path d="" fill="#4C6EA0" transform="translate(0,0)"/>
<path d="" fill="#3E5D8C" transform="translate(0,0)"/>
<path d="" fill="#1E4680" transform="translate(0,0)"/>
<path d="" fill="#355D99" transform="translate(0,0)"/>
<path d="" fill="#3C6298" transform="translate(0,0)"/>
<path d="" fill="#385F94" transform="translate(0,0)"/>
<path d="" fill="#355B8F" transform="translate(0,0)"/>
<path d="" fill="#18427D" transform="translate(0,0)"/>
<path d="" fill="#5D7AA9" transform="translate(0,0)"/>
<path d="" fill="#15407D" transform="translate(0,0)"/>
<path d="" fill="#31578C" transform="translate(0,0)"/>
<path d="" fill="#5472A2" transform="translate(0,0)"/>
<path d="" fill="#26508F" transform="translate(0,0)"/>
<path d="" fill="#59759B" transform="translate(0,0)"/>
<path d="" fill="#537098" transform="translate(0,0)"/>
<path d="" fill="#516F97" transform="translate(0,0)"/>
<path d="" fill="#506D96" transform="translate(0,0)"/>
<path d="" fill="#103C7C" transform="translate(0,0)"/>
<path d="" fill="#13407E" transform="translate(0,0)"/>
<path d="" fill="#0F3B7C" transform="translate(0,0)"/>
<path d="" fill="#1C4888" transform="translate(0,0)"/>
<path d="" fill="#123E7D" transform="translate(0,0)"/>
<path d="" fill="#0C3A7F" transform="translate(0,0)"/>
<path d="" fill="#4D6B95" transform="translate(0,0)"/>
<path d="" fill="#0D3B7B" transform="translate(0,0)"/>
<path d="" fill="#2B5188" transform="translate(0,0)"/>
<path d="" fill="#0A3879" transform="translate(0,0)"/>
<path d="" fill="#0C3C81" transform="translate(0,0)"/>
<path d="" fill="#34578B" transform="translate(0,0)"/>
<path d="" fill="#41628F" transform="translate(0,0)"/>
<path d="" fill="#355B92" transform="translate(0,0)"/>
<path d="" fill="#3C5D8C" transform="translate(0,0)"/>
<path d="" fill="#3C5D8C" transform="translate(0,0)"/>
<path d="" fill="#0C3878" transform="translate(0,0)"/>
<path d="" fill="#3A5F91" transform="translate(0,0)"/>
<path d="" fill="#0B366E" transform="translate(0,0)"/>
<path d="" fill="#365C91" transform="translate(0,0)"/>
<path d="" fill="#2E548A" transform="translate(0,0)"/>
<path d="" fill="#153E76" transform="translate(0,0)"/>
<path d="" fill="#335581" transform="translate(0,0)"/>
<path d="" fill="#2D5187" transform="translate(0,0)"/>
<path d="" fill="#23476C" transform="translate(0,0)"/>
<path d="" fill="#23466F" transform="translate(0,0)"/>
<path d="" fill="#345680" transform="translate(0,0)"/>
<path d="" fill="#284F84" transform="translate(0,0)"/>
<path d="" fill="#345680" transform="translate(0,0)"/>
<path d="" fill="#375162" transform="translate(0,0)"/>
<path d="" fill="#214572" transform="translate(0,0)"/>
<path d="" fill="#25497B" transform="translate(0,0)"/>
<path d="" fill="#1D4272" transform="translate(0,0)"/>
<path d="" fill="#2E5279" transform="translate(0,0)"/>
<path d="" fill="#2D5077" transform="translate(0,0)"/>
<path d="" fill="#2E5179" transform="translate(0,0)"/>
<path d="" fill="#2E5279" transform="translate(0,0)"/>
<path d="" fill="#2F5178" transform="translate(0,0)"/>
<path d="" fill="#676F55" transform="translate(0,0)"/>
<path d="" fill="#586559" transform="translate(0,0)"/>
<path d="" fill="#1E4472" transform="translate(0,0)"/>
<path d="" fill="#26476B" transform="translate(0,0)"/>
<path d="" fill="#28496B" transform="translate(0,0)"/>
<path d="" fill="#88834C" transform="translate(0,0)"/>
<path d="" fill="#6B7154" transform="translate(0,0)"/>
<path d="" fill="#87834C" transform="translate(0,0)"/>
<path d="" fill="#AF9E49" transform="translate(0,0)"/>
<path d="" fill="#6F7453" transform="translate(0,0)"/>
<path d="" fill="#838353" transform="translate(0,0)"/>
<path d="" fill="#898753" transform="translate(0,0)"/>
<path d="" fill="#A99B4A" transform="translate(0,0)"/>
<path d="" fill="#B1B58D" transform="translate(0,0)"/>
<path d="" fill="#978F4F" transform="translate(0,0)"/>
<path d="" fill="#CDC682" transform="translate(0,0)"/>
<path d="" fill="#DFBA36" transform="translate(0,0)"/>
<path d="" fill="#FCF682" transform="translate(0,0)"/>
<path d="" fill="#A79A4B" transform="translate(0,0)"/>
<path d="" fill="#C8C07C" transform="translate(0,0)"/>
<path d="" fill="#E9D672" transform="translate(0,0)"/>
<path d="" fill="#7B7D53" transform="translate(0,0)"/>
<path d="" fill="#727A5C" transform="translate(0,0)"/>
<path d="" fill="#9D934F" transform="translate(0,0)"/>
<path d="" fill="#E5D163" transform="translate(0,0)"/>
<path d="" fill="#E6CC59" transform="translate(0,0)"/>
<path d="" fill="#717758" transform="translate(0,0)"/>
<path d="" fill="#CAC279" transform="translate(0,0)"/>
<path d="" fill="#757A58" transform="translate(0,0)"/>
<path d="" fill="#747B5C" transform="translate(0,0)"/>
<path d="" fill="#DDCB67" transform="translate(0,0)"/>
<path d="" fill="#8A854C" transform="translate(0,0)"/>
<path d="" fill="#A99846" transform="translate(0,0)"/>
<path d="" fill="#DEBA37" transform="translate(0,0)"/>
<path d="" fill="#AFAB6D" transform="translate(0,0)"/>
<path d="" fill="#DEBA37" transform="translate(0,0)"/>
<path d="" fill="#7F8258" transform="translate(0,0)"/>
<path d="" fill="#E7D570" transform="translate(0,0)"/>
<path d="" fill="#F3D654" transform="translate(0,0)"/>
<path d="" fill="#EBC53A" transform="translate(0,0)"/>
<path d="" fill="#84824E" transform="translate(0,0)"/>
<path d="" fill="#ECD463" transform="translate(0,0)"/>
<path d="" fill="#DAC861" transform="translate(0,0)"/>
<path d="" fill="#BBA544" transform="translate(0,0)"/>
<path d="" fill="#B9A445" transform="translate(0,0)"/>
<path d="" fill="#DEBA37" transform="translate(0,0)"/>
<path d="" fill="#B9A546" transform="translate(0,0)"/>
<path d="" fill="#F4D958" transform="translate(0,0)"/>
<path d="" fill="#E3D06A" transform="translate(0,0)"/>
<path d="" fill="#F0C93B" transform="translate(0,0)"/>
<path d="" fill="#E8C23A" transform="translate(0,0)"/>
<path d="" fill="#E8C23A" transform="translate(0,0)"/>
<path d="" fill="#DEBA37" transform="translate(0,0)"/>
<path d="" fill="#DEBA37" transform="translate(0,0)"/>
<path d="" fill="#F3DD5F" transform="translate(0,0)"/>
<path d="" fill="#EEDC67" transform="translate(0,0)"/>
<path d="" fill="#F3D552" transform="translate(0,0)"/>
<path d="" fill="#E7C23A" transform="translate(0,0)"/>
<path d="" fill="#DEBA37" transform="translate(0,0)"/>
<path d="" fill="#D9B637" transform="translate(0,0)"/>
<path d="" fill="#EBC53A" transform="translate(0,0)"/>
<path d="" fill="#F4D853" transform="translate(0,0)"/>
<path d="" fill="#E9C33A" transform="translate(0,0)"/>
<path d="" fill="#EBC53A" transform="translate(0,0)"/>
<path d="" fill="#EBC53B" transform="translate(0,0)"/>
<path d="" fill="#DFBA36" transform="translate(0,0)"/>
<path d="" fill="#EBC43A" transform="translate(0,0)"/>
<path d="" fill="#F3D857" transform="translate(0,0)"/>
<path d="" fill="#F1D966" transform="translate(0,0)"/>
<path d="" fill="#F9D656" transform="translate(0,0)"/>
<path d="" fill="#F5DB67" transform="translate(0,0)"/>
<path d="" fill="#E9C239" transform="translate(0,0)"/>
<path d="" fill="#E9C239" transform="translate(0,0)"/>
<path d="" fill="#F9EC7A" transform="translate(0,0)"/>
<path d="" fill="#F2CA3B" transform="translate(0,0)"/>
<path d="" fill="#DFBA37" transform="translate(0,0)"/>
<path d="" fill="#ECC53A" transform="translate(0,0)"/>
<path d="" fill="#ECC53A" transform="translate(0,0)"/>
<path d="" fill="#F4CE45" transform="translate(0,0)"/>
<path d="" fill="#ECC438" transform="translate(0,0)"/>
<path d="" fill="#FEE865" transform="translate(0,0)"/>
<path d="" fill="#ECC53A" transform="translate(0,0)"/>
<path d="" fill="#DEBA37" transform="translate(0,0)"/>
<path d="" fill="#E8C23A" transform="translate(0,0)"/>
<path d="" fill="#ECC53A" transform="translate(0,0)"/>
<path d="" fill="#E8C239" transform="translate(0,0)"/>
<path d="" fill="#DEBA37" transform="translate(0,0)"/>
<path d="" fill="#DEBA37" transform="translate(0,0)"/>
<path d="" fill="#DEBA37" transform="translate(0,0)"/>
<path d="" fill="#E7C23A" transform="translate(0,0)"/>
<path d="" fill="#DEBA38" transform="translate(0,0)"/>
<path d="" fill="#E8C239" transform="translate(0,0)"/>
<path d="" fill="#DEB937" transform="translate(0,0)"/>
<path d="" fill="#E8C239" transform="translate(0,0)"/>
<path d="" fill="#DEBA37" transform="translate(0,0)"/>
<path d="" fill="#DFBA37" transform="translate(0,0)"/>
<path d="" fill="#E7C23A" transform="translate(0,0)"/>
<path d="" fill="#E7C23A" transform="translate(0,0)"/>
<path d="" fill="#DDB937" transform="translate(0,0)"/>
<path d="" fill="#EBC338" transform="translate(0,0)"/>
<path d="" fill="#DEB937" transform="translate(0,0)"/>
<path d="" fill="#E7C23A" transform="translate(0,0)"/>
<path d="" fill="#E8C23A" transform="translate(0,0)"/>
<path d="" fill="#E7C23A" transform="translate(0,0)"/>
<path d="" fill="#EDC73D" transform="translate(0,0)"/>
<path d="" fill="#E8C23A" transform="translate(0,0)"/>
<path d="" fill="#ECC53B" transform="translate(0,0)"/>
<path d="" fill="#DEBA37" transform="translate(0,0)"/>
<path d="" fill="#DEB936" transform="translate(0,0)"/>
<path d="" fill="#DEBA37" transform="translate(0,0)"/>
<path d="" fill="#F0D75D" transform="translate(0,0)"/>
<path d="" fill="#DFBA36" transform="translate(0,0)"/>
<path d="" fill="#F3D95B" transform="translate(0,0)"/>
</svg>
